Sriracha-Regular.ufo
<glyph name="quotesingle" format="1">
  <advance width="375"/>
  <unicode hex="0027"/>
  <outline>
    <contour>
      <point x="396" y="663"/>
      <point x="377" y="686"/>
      <point x="333" y="686" type="curve" smooth="yes"/>
      <point x="284" y="686"/>
      <point x="263" y="664"/>
      <point x="254" y="615" type="curve" smooth="yes"/>
      <point x="221" y="440" type="line"/>
      <point x="221" y="426" type="line" smooth="yes"/>
      <point x="221" y="401"/>
      <point x="226" y="388"/>
      <point x="263" y="388" type="curve" smooth="yes"/>
      <point x="303" y="388"/>
      <point x="323" y="404"/>
      <point x="331" y="435" type="curve" smooth="yes"/>
      <point x="346" y="494"/>
      <point x="388" y="590"/>
      <point x="396" y="631" type="curve"/>
    </contour>
  </outline>
</glyph>
<glyph name="P" format="1">
  <advance width="587"/>
  <unicode hex="0050"/>
  <outline>
    <contour>
      <point x="30" y="526"/>
      <point x="38" y="497"/>
      <point x="54" y="480" type="curve"/>
      <point x="70" y="495"/>
      <point x="96" y="510"/>
      <point x="133" y="521" type="curve"/>
      <point x="12" y="54" type="line" smooth="yes"/>
      <point x="10" y="47"/>
      <point x="9" y="40"/>
      <point x="9" y="33" type="curve" smooth="yes"/>
      <point x="9" y="-2"/>
      <point x="30" y="-13"/>
      <point x="69" y="-13" type="curve" smooth="yes"/>
      <point x="124" y="-13"/>
      <point x="138" y="23"/>
      <point x="147" y="60" type="curve" smooth="yes"/>
      <point x="155" y="93"/>
      <point x="167" y="135"/>
      <point x="181" y="187" type="curve"/>
      <point x="194" y="186"/>
      <point x="208" y="186"/>
      <point x="222" y="186" type="curve" smooth="yes"/>
      <point x="355" y="186"/>
      <point x="537" y="218"/>
      <point x="572" y="420" type="curve" smooth="yes"/>
      <point x="574" y="434"/>
      <point x="575" y="441"/>
      <point x="575" y="453" type="curve" smooth="yes"/>
      <point x="575" y="571"/>
      <point x="500" y="664"/>
      <point x="366" y="664" type="curve" smooth="yes"/>
      <point x="338" y="664"/>
      <point x="308" y="662"/>
      <point x="277" y="652" type="curve"/>
      <point x="272" y="663"/>
      <point x="259" y="675"/>
      <point x="234" y="675" type="curve" smooth="yes"/>
      <point x="193" y="675"/>
      <point x="170" y="653"/>
      <point x="159" y="629" type="curve"/>
      <point x="126" y="620"/>
      <point x="93" y="603"/>
      <point x="62" y="588" type="curve" smooth="yes"/>
      <point x="46" y="580"/>
      <point x="30" y="570"/>
      <point x="30" y="550" type="curve" smooth="yes"/>
    </contour>
    <contour>
      <point x="221" y="365"/>
      <point x="252" y="492"/>
      <point x="266" y="548" type="curve"/>
      <point x="293" y="556"/>
      <point x="319" y="562"/>
      <point x="343" y="562" type="curve" smooth="yes"/>
      <point x="415" y="562"/>
      <point x="461" y="527"/>
      <point x="461" y="451" type="curve" smooth="yes"/>
      <point x="461" y="441"/>
      <point x="460" y="437"/>
      <point x="458" y="426" type="curve" smooth="yes"/>
      <point x="437" y="324"/>
      <point x="361" y="279"/>
      <point x="236" y="279" type="curve" smooth="yes"/>
      <point x="225" y="279"/>
      <point x="214" y="279"/>
      <point x="202" y="280" type="curve"/>
    </contour>
  </outline>
</glyph>
<glyph name="Ucircumflex" format="1">
  <advance width="662"/>
  <unicode hex="00DB"/>
  <outline>
    <contour>
      <point x="12" y="263" type="line" smooth="yes"/>
      <point x="6" y="240"/>
      <point x="3" y="218"/>
      <point x="3" y="197" type="curve" smooth="yes"/>
      <point x="3" y="69"/>
      <point x="105" y="-21"/>
      <point x="246" y="-21" type="curve" smooth="yes"/>
      <point x="459" y="-21"/>
      <point x="546" y="117"/>
      <point x="576" y="283" type="curve" smooth="yes"/>
      <point x="594" y="383"/>
      <point x="639" y="577"/>
      <point x="656" y="643" type="curve"/>
      <point x="651" y="654"/>
      <point x="621" y="664"/>
      <point x="573" y="664" type="curve" smooth="yes"/>
      <point x="571" y="664"/>
      <point x="553" y="661"/>
      <point x="551" y="660" type="curve"/>
      <point x="521" y="642"/>
      <point x="525" y="618"/>
      <point x="507" y="564" type="curve" smooth="yes"/>
      <point x="500" y="541"/>
      <point x="466" y="394"/>
      <point x="454" y="331" type="curve" smooth="yes"/>
      <point x="424" y="178"/>
      <point x="394" y="81"/>
      <point x="260" y="80" type="curve" smooth="yes"/>
      <point x="210" y="80"/>
      <point x="134" y="108"/>
      <point x="134" y="194" type="curve" smooth="yes"/>
      <point x="134" y="199"/>
      <point x="135" y="203"/>
      <point x="135" y="208" type="curve"/>
      <point x="146" y="325"/>
      <point x="236" y="559"/>
      <point x="236" y="624" type="curve" smooth="yes"/>
      <point x="236" y="632"/>
      <point x="234" y="638"/>
      <point x="231" y="640" type="curve"/>
      <point x="229" y="657"/>
      <point x="196" y="664"/>
      <point x="164" y="664" type="curve" smooth="yes"/>
      <point x="118" y="664"/>
      <point x="109" y="647"/>
      <point x="95" y="591" type="curve" smooth="yes"/>
    </contour>
    <contour>
      <point x="409" y="889"/>
      <point x="397" y="884"/>
      <point x="388" y="877" type="curve" smooth="yes"/>
      <point x="339" y="839"/>
      <point x="290" y="798"/>
      <point x="263" y="776" type="curve" smooth="yes"/>
      <point x="243" y="759"/>
      <point x="242" y="748"/>
      <point x="242" y="736" type="curve" smooth="yes"/>
      <point x="242" y="715"/>
      <point x="269" y="703"/>
      <point x="293" y="703" type="curve" smooth="yes"/>
      <point x="312" y="703"/>
      <point x="352" y="736"/>
      <point x="423" y="797" type="curve"/>
      <point x="478" y="731" type="line" smooth="yes"/>
      <point x="489" y="718"/>
      <point x="503" y="710"/>
      <point x="516" y="710" type="curve" smooth="yes"/>
      <point x="543" y="710"/>
      <point x="568" y="727"/>
      <point x="568" y="749" type="curve" smooth="yes"/>
      <point x="568" y="757"/>
      <point x="565" y="765"/>
      <point x="558" y="774" type="curve" smooth="yes"/>
      <point x="507" y="840" type="line" smooth="yes"/>
      <point x="474" y="883"/>
      <point x="458" y="889"/>
      <point x="433" y="889" type="curve" smooth="yes"/>
    </contour>
  </outline>
</glyph>
<glyph name="Tbar" format="1">
  <advance width="556"/>
  <unicode hex="0166"/>
  <outline>
    <contour>
      <point x="453" y="278" type="line"/>
      <point x="481" y="287"/>
      <point x="512" y="312"/>
      <point x="512" y="337" type="curve" smooth="yes"/>
      <point x="512" y="359"/>
      <point x="494" y="374"/>
      <point x="473" y="383" type="curve"/>
      <point x="446" y="380"/>
      <point x="400" y="378"/>
      <point x="348" y="374" type="curve"/>
      <point x="364" y="441"/>
      <point x="379" y="504"/>
      <point x="389" y="549" type="curve"/>
      <point x="544" y="561" type="line"/>
      <point x="572" y="570"/>
      <point x="603" y="595"/>
      <point x="603" y="620" type="curve" smooth="yes"/>
      <point x="603" y="642"/>
      <point x="585" y="657"/>
      <point x="564" y="666" type="curve"/>
      <point x="494" y="660"/>
      <point x="201" y="637"/>
      <point x="96" y="616" type="curve"/>
      <point x="75" y="607"/>
      <point x="57" y="592"/>
      <point x="57" y="570" type="curve" smooth="yes"/>
      <point x="57" y="545"/>
      <point x="70" y="523"/>
      <point x="98" y="514" type="curve"/>
      <point x="122" y="519"/>
      <point x="230" y="528"/>
      <point x="258" y="532" type="curve"/>
      <point x="215" y="362" type="line"/>
      <point x="174" y="357"/>
      <point x="135" y="352"/>
      <point x="104" y="346" type="curve"/>
      <point x="83" y="337"/>
      <point x="65" y="322"/>
      <point x="65" y="300" type="curve" smooth="yes"/>
      <point x="65" y="275"/>
      <point x="78" y="253"/>
      <point x="106" y="244" type="curve"/>
      <point x="115" y="246"/>
      <point x="144" y="249"/>
      <point x="187" y="254" type="curve"/>
      <point x="137" y="54" type="line" smooth="yes"/>
      <point x="135" y="47"/>
      <point x="134" y="40"/>
      <point x="134" y="33" type="curve" smooth="yes"/>
      <point x="134" y="-2"/>
      <point x="155" y="-13"/>
      <point x="194" y="-13" type="curve" smooth="yes"/>
      <point x="249" y="-13"/>
      <point x="263" y="23"/>
      <point x="272" y="60" type="curve" smooth="yes"/>
      <point x="322" y="266" type="line"/>
    </contour>
  </outline>
</glyph>
<glyph name="Ubreve" format="1">
  <advance width="662"/>
  <unicode hex="016C"/>
  <outline>
    <contour>
      <point x="12" y="263" type="line" smooth="yes"/>
      <point x="6" y="240"/>
      <point x="3" y="218"/>
      <point x="3" y="197" type="curve" smooth="yes"/>
      <point x="3" y="69"/>
      <point x="105" y="-21"/>
      <point x="246" y="-21" type="curve" smooth="yes"/>
      <point x="459" y="-21"/>
      <point x="546" y="117"/>
      <point x="576" y="283" type="curve" smooth="yes"/>
      <point x="594" y="383"/>
      <point x="639" y="577"/>
      <point x="656" y="643" type="curve"/>
      <point x="651" y="654"/>
      <point x="621" y="664"/>
      <point x="573" y="664" type="curve" smooth="yes"/>
      <point x="571" y="664"/>
      <point x="553" y="661"/>
      <point x="551" y="660" type="curve"/>
      <point x="521" y="642"/>
      <point x="525" y="618"/>
      <point x="507" y="564" type="curve" smooth="yes"/>
      <point x="500" y="541"/>
      <point x="466" y="394"/>
      <point x="454" y="331" type="curve" smooth="yes"/>
      <point x="424" y="178"/>
      <point x="394" y="81"/>
      <point x="260" y="80" type="curve" smooth="yes"/>
      <point x="210" y="80"/>
      <point x="134" y="108"/>
      <point x="134" y="194" type="curve" smooth="yes"/>
      <point x="134" y="199"/>
      <point x="135" y="203"/>
      <point x="135" y="208" type="curve"/>
      <point x="146" y="325"/>
      <point x="236" y="559"/>
      <point x="236" y="624" type="curve" smooth="yes"/>
      <point x="236" y="632"/>
      <point x="234" y="638"/>
      <point x="231" y="640" type="curve"/>
      <point x="229" y="657"/>
      <point x="196" y="664"/>
      <point x="164" y="664" type="curve" smooth="yes"/>
      <point x="118" y="664"/>
      <point x="109" y="647"/>
      <point x="95" y="591" type="curve" smooth="yes"/>
    </contour>
    <contour>
      <point x="487" y="709"/>
      <point x="573" y="752"/>
      <point x="587" y="851" type="curve"/>
      <point x="578" y="865"/>
      <point x="555" y="865"/>
      <point x="543" y="865" type="curve" smooth="yes"/>
      <point x="533" y="865"/>
      <point x="518" y="859"/>
      <point x="509" y="851" type="curve"/>
      <point x="487" y="807"/>
      <point x="473" y="788"/>
      <point x="407" y="788" type="curve" smooth="yes"/>
      <point x="356" y="788"/>
      <point x="352" y="801"/>
      <point x="351" y="824" type="curve" smooth="yes"/>
      <point x="350" y="855"/>
      <point x="328" y="856"/>
      <point x="317" y="856" type="curve" smooth="yes"/>
      <point x="271" y="856"/>
      <point x="264" y="825"/>
      <point x="264" y="801" type="curve" smooth="yes"/>
      <point x="264" y="739"/>
      <point x="320" y="707"/>
      <point x="399" y="707" type="curve" smooth="yes"/>
    </contour>
  </outline>
</glyph>
<glyph name="Uhungarumlaut" format="1">
  <advance width="662"/>
  <unicode hex="0170"/>
  <outline>
    <contour>
      <point x="12" y="263" type="line" smooth="yes"/>
      <point x="6" y="240"/>
      <point x="3" y="218"/>
      <point x="3" y="197" type="curve" smooth="yes"/>
      <point x="3" y="69"/>
      <point x="105" y="-21"/>
      <point x="246" y="-21" type="curve" smooth="yes"/>
      <point x="459" y="-21"/>
      <point x="546" y="117"/>
      <point x="576" y="283" type="curve" smooth="yes"/>
      <point x="594" y="383"/>
      <point x="639" y="577"/>
      <point x="656" y="643" type="curve"/>
      <point x="651" y="654"/>
      <point x="621" y="664"/>
      <point x="573" y="664" type="curve" smooth="yes"/>
      <point x="571" y="664"/>
      <point x="553" y="661"/>
      <point x="551" y="660" type="curve"/>
      <point x="521" y="642"/>
      <point x="525" y="618"/>
      <point x="507" y="564" type="curve" smooth="yes"/>
      <point x="500" y="541"/>
      <point x="466" y="394"/>
      <point x="454" y="331" type="curve" smooth="yes"/>
      <point x="424" y="178"/>
      <point x="394" y="81"/>
      <point x="260" y="80" type="curve" smooth="yes"/>
      <point x="210" y="80"/>
      <point x="134" y="108"/>
      <point x="134" y="194" type="curve" smooth="yes"/>
      <point x="134" y="199"/>
      <point x="135" y="203"/>
      <point x="135" y="208" type="curve"/>
      <point x="146" y="325"/>
      <point x="236" y="559"/>
      <point x="236" y="624" type="curve" smooth="yes"/>
      <point x="236" y="632"/>
      <point x="234" y="638"/>
      <point x="231" y="640" type="curve"/>
      <point x="229" y="657"/>
      <point x="196" y="664"/>
      <point x="164" y="664" type="curve" smooth="yes"/>
      <point x="118" y="664"/>
      <point x="109" y="647"/>
      <point x="95" y="591" type="curve" smooth="yes"/>
    </contour>
    <contour>
      <point x="313" y="701"/>
      <point x="328" y="707"/>
      <point x="340" y="718" type="curve" smooth="yes"/>
      <point x="391" y="762"/>
      <point x="432" y="812"/>
      <point x="432" y="854" type="curve" smooth="yes"/>
      <point x="432" y="868"/>
      <point x="424" y="891"/>
      <point x="379" y="891" type="curve" smooth="yes"/>
      <point x="335" y="891"/>
      <point x="333" y="873"/>
      <point x="333" y="857" type="curve" smooth="yes"/>
      <point x="333" y="804"/>
      <point x="272" y="749"/>
      <point x="272" y="715" type="curve" smooth="yes"/>
      <point x="272" y="708"/>
      <point x="276" y="701"/>
      <point x="295" y="701" type="curve" smooth="yes"/>
    </contour>
    <contour>
      <point x="480" y="701"/>
      <point x="495" y="707"/>
      <point x="508" y="718" type="curve" smooth="yes"/>
      <point x="558" y="762"/>
      <point x="600" y="812"/>
      <point x="600" y="854" type="curve" smooth="yes"/>
      <point x="600" y="868"/>
      <point x="592" y="891"/>
      <point x="547" y="891" type="curve" smooth="yes"/>
      <point x="503" y="891"/>
      <point x="501" y="873"/>
      <point x="501" y="857" type="curve" smooth="yes"/>
      <point x="501" y="805"/>
      <point x="440" y="749"/>
      <point x="440" y="715" type="curve" smooth="yes"/>
      <point x="440" y="708"/>
      <point x="444" y="701"/>
      <point x="462" y="701" type="curve" smooth="yes"/>
    </contour>
  </outline>
</glyph>
<glyph name="Wcircumflex" format="1">
  <advance width="771"/>
  <unicode hex="0174"/>
  <outline>
    <contour>
      <point x="362" y="301" type="line"/>
      <point x="352" y="249"/>
      <point x="344" y="190"/>
      <point x="344" y="136" type="curve" smooth="yes"/>
      <point x="344" y="50"/>
      <point x="364" y="-18"/>
      <point x="428" y="-18" type="curve" smooth="yes"/>
      <point x="613" y="-18"/>
      <point x="691" y="296"/>
      <point x="747" y="543" type="curve" smooth="yes"/>
      <point x="763" y="613" type="line"/>
      <point x="763" y="629"/>
      <point x="720" y="645"/>
      <point x="689" y="645" type="curve" smooth="yes"/>
      <point x="666" y="645"/>
      <point x="644" y="636"/>
      <point x="639" y="610" type="curve" smooth="yes"/>
      <point x="604" y="445"/>
      <point x="526" y="119"/>
      <point x="451" y="119" type="curve" smooth="yes"/>
      <point x="431" y="119"/>
      <point x="417" y="148"/>
      <point x="417" y="194" type="curve" smooth="yes"/>
      <point x="417" y="202"/>
      <point x="417" y="210"/>
      <point x="418" y="218" type="curve"/>
      <point x="430" y="352"/>
      <point x="480" y="573"/>
      <point x="482" y="587" type="curve"/>
      <point x="482" y="592"/>
      <point x="483" y="597"/>
      <point x="483" y="601" type="curve" smooth="yes"/>
      <point x="483" y="636"/>
      <point x="468" y="652"/>
      <point x="435" y="652" type="curve" smooth="yes"/>
      <point x="420" y="652"/>
      <point x="385" y="635"/>
      <point x="379" y="607" type="curve" smooth="yes"/>
      <point x="345" y="442"/>
      <point x="235" y="119"/>
      <point x="173" y="119" type="curve" smooth="yes"/>
      <point x="155" y="119"/>
      <point x="146" y="150"/>
      <point x="146" y="193" type="curve" smooth="yes"/>
      <point x="146" y="213"/>
      <point x="147" y="237"/>
      <point x="149" y="260" type="curve" smooth="yes"/>
      <point x="162" y="396"/>
      <point x="243" y="577"/>
      <point x="244" y="589" type="curve"/>
      <point x="244" y="593"/>
      <point x="245" y="597"/>
      <point x="245" y="601" type="curve" smooth="yes"/>
      <point x="245" y="639"/>
      <point x="220" y="655"/>
      <point x="186" y="655" type="curve" smooth="yes"/>
      <point x="143" y="655"/>
      <point x="126" y="626"/>
      <point x="115" y="598" type="curve" smooth="yes"/>
      <point x="81" y="516"/>
      <point x="25" y="345"/>
      <point x="25" y="171" type="curve" smooth="yes"/>
      <point x="25" y="58"/>
      <point x="50" y="-18"/>
      <point x="117" y="-18" type="curve" smooth="yes"/>
      <point x="196" y="-18"/>
      <point x="294" y="98"/>
      <point x="358" y="301" type="curve"/>
    </contour>
    <contour>
      <point x="472" y="896"/>
      <point x="460" y="891"/>
      <point x="451" y="884" type="curve" smooth="yes"/>
      <point x="402" y="846"/>
      <point x="353" y="805"/>
      <point x="326" y="783" type="curve" smooth="yes"/>
      <point x="306" y="766"/>
      <point x="305" y="755"/>
      <point x="305" y="743" type="curve" smooth="yes"/>
      <point x="305" y="722"/>
      <point x="332" y="710"/>
      <point x="356" y="710" type="curve" smooth="yes"/>
      <point x="375" y="710"/>
      <point x="415" y="743"/>
      <point x="486" y="804" type="curve"/>
      <point x="541" y="738" type="line" smooth="yes"/>
      <point x="552" y="725"/>
      <point x="566" y="717"/>
      <point x="579" y="717" type="curve" smooth="yes"/>
      <point x="606" y="717"/>
      <point x="631" y="734"/>
      <point x="631" y="756" type="curve" smooth="yes"/>
      <point x="631" y="764"/>
      <point x="628" y="772"/>
      <point x="621" y="781" type="curve" smooth="yes"/>
      <point x="570" y="847" type="line" smooth="yes"/>
      <point x="537" y="890"/>
      <point x="521" y="896"/>
      <point x="496" y="896" type="curve" smooth="yes"/>
    </contour>
  </outline>
</glyph>
<glyph name="Ucaron" format="1">
  <advance width="662"/>
  <unicode hex="01D3"/>
  <outline>
    <contour>
      <point x="12" y="263" type="line" smooth="yes"/>
      <point x="6" y="240"/>
      <point x="3" y="218"/>
      <point x="3" y="197" type="curve" smooth="yes"/>
      <point x="3" y="69"/>
      <point x="105" y="-21"/>
      <point x="246" y="-21" type="curve" smooth="yes"/>
      <point x="459" y="-21"/>
      <point x="546" y="117"/>
      <point x="576" y="283" type="curve" smooth="yes"/>
      <point x="594" y="383"/>
      <point x="639" y="577"/>
      <point x="656" y="643" type="curve"/>
      <point x="651" y="654"/>
      <point x="621" y="664"/>
      <point x="573" y="664" type="curve" smooth="yes"/>
      <point x="571" y="664"/>
      <point x="553" y="661"/>
      <point x="551" y="660" type="curve"/>
      <point x="521" y="642"/>
      <point x="525" y="618"/>
      <point x="507" y="564" type="curve" smooth="yes"/>
      <point x="500" y="541"/>
      <point x="466" y="394"/>
      <point x="454" y="331" type="curve" smooth="yes"/>
      <point x="424" y="178"/>
      <point x="394" y="81"/>
      <point x="260" y="80" type="curve" smooth="yes"/>
      <point x="210" y="80"/>
      <point x="134" y="108"/>
      <point x="134" y="194" type="curve" smooth="yes"/>
      <point x="134" y="199"/>
      <point x="135" y="203"/>
      <point x="135" y="208" type="curve"/>
      <point x="146" y="325"/>
      <point x="236" y="559"/>
      <point x="236" y="624" type="curve" smooth="yes"/>
      <point x="236" y="632"/>
      <point x="234" y="638"/>
      <point x="231" y="640" type="curve"/>
      <point x="229" y="657"/>
      <point x="196" y="664"/>
      <point x="164" y="664" type="curve" smooth="yes"/>
      <point x="118" y="664"/>
      <point x="109" y="647"/>
      <point x="95" y="591" type="curve" smooth="yes"/>
    </contour>
    <contour>
      <point x="414" y="713"/>
      <point x="426" y="718"/>
      <point x="435" y="725" type="curve" smooth="yes"/>
      <point x="484" y="763"/>
      <point x="533" y="804"/>
      <point x="560" y="826" type="curve" smooth="yes"/>
      <point x="580" y="843"/>
      <point x="581" y="854"/>
      <point x="581" y="866" type="curve" smooth="yes"/>
      <point x="581" y="887"/>
      <point x="554" y="899"/>
      <point x="530" y="899" type="curve" smooth="yes"/>
      <point x="511" y="899"/>
      <point x="471" y="866"/>
      <point x="400" y="805" type="curve"/>
      <point x="345" y="871" type="line" smooth="yes"/>
      <point x="334" y="884"/>
      <point x="320" y="892"/>
      <point x="307" y="892" type="curve" smooth="yes"/>
      <point x="280" y="892"/>
      <point x="255" y="875"/>
      <point x="255" y="853" type="curve" smooth="yes"/>
      <point x="255" y="845"/>
      <point x="258" y="837"/>
      <point x="265" y="828" type="curve" smooth="yes"/>
      <point x="316" y="762" type="line" smooth="yes"/>
      <point x="349" y="719"/>
      <point x="365" y="713"/>
      <point x="390" y="713" type="curve" smooth="yes"/>
    </contour>
  </outline>
</glyph>
<glyph name="Udieresismacron" format="1">
  <advance width="662"/>
  <unicode hex="01D5"/>
  <outline>
    <contour>
      <point x="12" y="263" type="line" smooth="yes"/>
      <point x="6" y="240"/>
      <point x="3" y="218"/>
      <point x="3" y="197" type="curve" smooth="yes"/>
      <point x="3" y="69"/>
      <point x="105" y="-21"/>
      <point x="246" y="-21" type="curve" smooth="yes"/>
      <point x="459" y="-21"/>
      <point x="546" y="117"/>
      <point x="576" y="283" type="curve" smooth="yes"/>
      <point x="594" y="383"/>
      <point x="639" y="577"/>
      <point x="656" y="643" type="curve"/>
      <point x="651" y="654"/>
      <point x="621" y="664"/>
      <point x="573" y="664" type="curve" smooth="yes"/>
      <point x="571" y="664"/>
      <point x="553" y="661"/>
      <point x="551" y="660" type="curve"/>
      <point x="521" y="642"/>
      <point x="525" y="618"/>
      <point x="507" y="564" type="curve" smooth="yes"/>
      <point x="500" y="541"/>
      <point x="466" y="394"/>
      <point x="454" y="331" type="curve" smooth="yes"/>
      <point x="424" y="178"/>
      <point x="394" y="81"/>
      <point x="260" y="80" type="curve" smooth="yes"/>
      <point x="210" y="80"/>
      <point x="134" y="108"/>
      <point x="134" y="194" type="curve" smooth="yes"/>
      <point x="134" y="199"/>
      <point x="135" y="203"/>
      <point x="135" y="208" type="curve"/>
      <point x="146" y="325"/>
      <point x="236" y="559"/>
      <point x="236" y="624" type="curve" smooth="yes"/>
      <point x="236" y="632"/>
      <point x="234" y="638"/>
      <point x="231" y="640" type="curve"/>
      <point x="229" y="657"/>
      <point x="196" y="664"/>
      <point x="164" y="664" type="curve" smooth="yes"/>
      <point x="118" y="664"/>
      <point x="109" y="647"/>
      <point x="95" y="591" type="curve" smooth="yes"/>
    </contour>
    <contour>
      <point x="349" y="708"/>
      <point x="392" y="741"/>
      <point x="392" y="784" type="curve" smooth="yes"/>
      <point x="392" y="816"/>
      <point x="361" y="852"/>
      <point x="327" y="852" type="curve" smooth="yes"/>
      <point x="284" y="852"/>
      <point x="237" y="815"/>
      <point x="237" y="768" type="curve" smooth="yes"/>
      <point x="237" y="737"/>
      <point x="272" y="708"/>
      <point x="302" y="708" type="curve" smooth="yes"/>
    </contour>
    <contour>
      <point x="577" y="712"/>
      <point x="619" y="747"/>
      <point x="619" y="790" type="curve" smooth="yes"/>
      <point x="619" y="822"/>
      <point x="581" y="854"/>
      <point x="547" y="854" type="curve" smooth="yes"/>
      <point x="504" y="854"/>
      <point x="461" y="822"/>
      <point x="461" y="774" type="curve" smooth="yes"/>
      <point x="461" y="744"/>
      <point x="500" y="712"/>
      <point x="530" y="712" type="curve" smooth="yes"/>
    </contour>
    <contour>
      <point x="619" y="971" type="line"/>
      <point x="618" y="996"/>
      <point x="602" y="1009"/>
      <point x="571" y="1011" type="curve"/>
      <point x="382" y="1003" type="line" smooth="yes"/>
      <point x="286" y="999"/>
      <point x="254" y="987"/>
      <point x="251" y="944" type="curve"/>
      <point x="251" y="936" type="line"/>
      <point x="253" y="914"/>
      <point x="267" y="898"/>
      <point x="298" y="896" type="curve"/>
      <point x="313" y="896"/>
      <point x="327" y="898"/>
      <point x="341" y="900" type="curve"/>
      <point x="550" y="911" type="line" smooth="yes"/>
      <point x="587" y="913"/>
      <point x="617" y="929"/>
      <point x="619" y="964" type="curve"/>
    </contour>
  </outline>
</glyph>
<glyph name="Udieresisgrave" format="1">
  <advance width="662"/>
  <unicode hex="01DB"/>
  <outline>
    <contour>
      <point x="12" y="263" type="line" smooth="yes"/>
      <point x="6" y="240"/>
      <point x="3" y="218"/>
      <point x="3" y="197" type="curve" smooth="yes"/>
      <point x="3" y="69"/>
      <point x="105" y="-21"/>
      <point x="246" y="-21" type="curve" smooth="yes"/>
      <point x="459" y="-21"/>
      <point x="546" y="117"/>
      <point x="576" y="283" type="curve" smooth="yes"/>
      <point x="594" y="383"/>
      <point x="639" y="577"/>
      <point x="656" y="643" type="curve"/>
      <point x="651" y="654"/>
      <point x="621" y="664"/>
      <point x="573" y="664" type="curve" smooth="yes"/>
      <point x="571" y="664"/>
      <point x="553" y="661"/>
      <point x="551" y="660" type="curve"/>
      <point x="521" y="642"/>
      <point x="525" y="618"/>
      <point x="507" y="564" type="curve" smooth="yes"/>
      <point x="500" y="541"/>
      <point x="466" y="394"/>
      <point x="454" y="331" type="curve" smooth="yes"/>
      <point x="424" y="178"/>
      <point x="394" y="81"/>
      <point x="260" y="80" type="curve" smooth="yes"/>
      <point x="210" y="80"/>
      <point x="134" y="108"/>
      <point x="134" y="194" type="curve" smooth="yes"/>
      <point x="134" y="199"/>
      <point x="135" y="203"/>
      <point x="135" y="208" type="curve"/>
      <point x="146" y="325"/>
      <point x="236" y="559"/>
      <point x="236" y="624" type="curve" smooth="yes"/>
      <point x="236" y="632"/>
      <point x="234" y="638"/>
      <point x="231" y="640" type="curve"/>
      <point x="229" y="657"/>
      <point x="196" y="664"/>
      <point x="164" y="664" type="curve" smooth="yes"/>
      <point x="118" y="664"/>
      <point x="109" y="647"/>
      <point x="95" y="591" type="curve" smooth="yes"/>
    </contour>
    <contour>
      <point x="351" y="713"/>
      <point x="392" y="745"/>
      <point x="392" y="786" type="curve" smooth="yes"/>
      <point x="392" y="817"/>
      <point x="362" y="851"/>
      <point x="329" y="851" type="curve" smooth="yes"/>
      <point x="288" y="851"/>
      <point x="243" y="816"/>
      <point x="243" y="770" type="curve" smooth="yes"/>
      <point x="243" y="741"/>
      <point x="277" y="713"/>
      <point x="305" y="713" type="curve" smooth="yes"/>
    </contour>
    <contour>
      <point x="579" y="717"/>
      <point x="619" y="750"/>
      <point x="619" y="792" type="curve" smooth="yes"/>
      <point x="619" y="822"/>
      <point x="582" y="853"/>
      <point x="550" y="853" type="curve" smooth="yes"/>
      <point x="508" y="853"/>
      <point x="467" y="822"/>
      <point x="467" y="776" type="curve" smooth="yes"/>
      <point x="467" y="748"/>
      <point x="505" y="717"/>
      <point x="533" y="717" type="curve" smooth="yes"/>
    </contour>
    <contour>
      <point x="460" y="932"/>
      <point x="358" y="1022"/>
      <point x="340" y="1022" type="curve" smooth="yes"/>
      <point x="319" y="1022"/>
      <point x="281" y="997"/>
      <point x="281" y="979" type="curve" smooth="yes"/>
      <point x="281" y="965"/>
      <point x="296" y="956"/>
      <point x="336" y="927" type="curve" smooth="yes"/>
      <point x="395" y="885"/>
      <point x="426" y="866"/>
      <point x="455" y="866" type="curve" smooth="yes"/>
      <point x="475" y="866"/>
      <point x="484" y="872"/>
      <point x="484" y="890" type="curve" smooth="yes"/>
      <point x="484" y="894"/>
      <point x="483" y="897"/>
      <point x="482" y="900" type="curve"/>
    </contour>
  </outline>
</glyph>
<glyph name="Delta" format="1">
  <advance width="581"/>
  <unicode hex="0394"/>
  <outline>
    <contour>
      <point x="585" y="45"/>
      <point x="594" y="58"/>
      <point x="594" y="80" type="curve" smooth="yes"/>
      <point x="594" y="84"/>
      <point x="593" y="88"/>
      <point x="593" y="92" type="curve"/>
      <point x="498" y="693" type="line"/>
      <point x="497" y="705"/>
      <point x="452" y="711"/>
      <point x="431" y="711" type="curve" smooth="yes"/>
      <point x="410" y="711"/>
      <point x="359" y="674"/>
      <point x="352" y="662" type="curve" smooth="yes"/>
      <point x="23" y="62" type="line" smooth="yes"/>
      <point x="17" y="51"/>
      <point x="14" y="39"/>
      <point x="14" y="28" type="curve" smooth="yes"/>
      <point x="14" y="9"/>
      <point x="32" y="-33"/>
      <point x="65" y="-33" type="curve" smooth="yes"/>
      <point x="70" y="-33" type="line" smooth="yes"/>
      <point x="73" y="-33"/>
      <point x="76" y="-33"/>
      <point x="79" y="-31" type="curve"/>
      <point x="122" y="14" type="line"/>
      <point x="133" y="20"/>
      <point x="141" y="23"/>
      <point x="147" y="23" type="curve" smooth="yes"/>
      <point x="169" y="23"/>
      <point x="188" y="-17"/>
      <point x="205" y="-17" type="curve"/>
      <point x="205" y="-17"/>
      <point x="206" y="-17"/>
      <point x="540" y="38" type="curve" smooth="yes"/>
    </contour>
    <contour>
      <point x="190" y="64" type="line"/>
      <point x="165" y="64"/>
      <point x="146" y="74"/>
      <point x="146" y="92" type="curve" smooth="yes"/>
      <point x="146" y="97"/>
      <point x="147" y="103"/>
      <point x="151" y="110" type="curve" smooth="yes"/>
      <point x="394" y="560" type="line" smooth="yes"/>
      <point x="401" y="573"/>
      <point x="408" y="576"/>
      <point x="412" y="576" type="curve" smooth="yes"/>
      <point x="416" y="576"/>
      <point x="419" y="572"/>
      <point x="421" y="565" type="curve"/>
      <point x="426" y="521"/>
      <point x="424" y="489"/>
      <point x="433" y="440" type="curve" smooth="yes"/>
      <point x="487" y="153" type="line"/>
      <point x="488" y="149"/>
      <point x="488" y="145"/>
      <point x="488" y="142" type="curve" smooth="yes"/>
      <point x="488" y="117"/>
      <point x="471" y="112"/>
      <point x="451" y="109" type="curve" smooth="yes"/>
    </contour>
  </outline>
</glyph>
<glyph name="saraUe-thai" format="1">
  <advance width="0"/>
  <unicode hex="0E36"/>
  <outline>
    <contour>
      <point x="36" y="698"/>
      <point x="103" y="747"/>
      <point x="103" y="809" type="curve" smooth="yes"/>
      <point x="103" y="870"/>
      <point x="56" y="911"/>
      <point x="9" y="911" type="curve" smooth="yes"/>
      <point x="-72" y="911"/>
      <point x="-132" y="865"/>
      <point x="-132" y="794" type="curve" smooth="yes"/>
      <point x="-132" y="742"/>
      <point x="-97" y="698"/>
      <point x="-38" y="698" type="curve" smooth="yes"/>
    </contour>
    <contour>
      <point x="-40" y="758"/>
      <point x="-59" y="768"/>
      <point x="-59" y="790" type="curve" smooth="yes"/>
      <point x="-59" y="830"/>
      <point x="-39" y="845"/>
      <point x="-5" y="845" type="curve" smooth="yes"/>
      <point x="14" y="845"/>
      <point x="26" y="834"/>
      <point x="26" y="813" type="curve" smooth="yes"/>
      <point x="26" y="774"/>
      <point x="-1" y="758"/>
      <point x="-26" y="758" type="curve" smooth="yes"/>
    </contour>
    <contour>
      <point x="-9" y="706"/>
      <point x="-37" y="722"/>
      <point x="-60" y="748" type="curve" smooth="yes"/>
      <point x="-116" y="811"/>
      <point x="-169" y="840"/>
      <point x="-257" y="840" type="curve" smooth="yes"/>
      <point x="-331" y="840"/>
      <point x="-473" y="790"/>
      <point x="-473" y="709" type="curve" smooth="yes"/>
      <point x="-473" y="636"/>
      <point x="-344" y="598"/>
      <point x="-233" y="598" type="curve" smooth="yes"/>
      <point x="-199" y="598"/>
      <point x="-126" y="618"/>
      <point x="-126" y="656" type="curve" smooth="yes"/>
      <point x="-126" y="667"/>
      <point x="-138" y="668"/>
      <point x="-148" y="668" type="curve" smooth="yes"/>
      <point x="-167" y="668"/>
      <point x="-201" y="666"/>
      <point x="-229" y="666" type="curve" smooth="yes"/>
      <point x="-263" y="666"/>
      <point x="-361" y="681"/>
      <point x="-361" y="716" type="curve" smooth="yes"/>
      <point x="-361" y="747"/>
      <point x="-295" y="760"/>
      <point x="-262" y="760" type="curve" smooth="yes"/>
      <point x="-155" y="760"/>
      <point x="-100" y="637"/>
      <point x="-39" y="637" type="curve" smooth="yes"/>
      <point x="-17" y="637"/>
      <point x="16" y="644"/>
      <point x="16" y="671" type="curve" smooth="yes"/>
      <point x="16" y="679"/>
      <point x="14" y="696"/>
      <point x="5" y="701" type="curve"/>
    </contour>
    <contour>
      <point x="-17" y="642" type="move" name="top"/>
    </contour>
    <contour>
      <point x="-24" y="550" type="move" name="_top"/>
    </contour>
  </outline>
</glyph>
<glyph name="maiyamok-thai" format="1">
  <advance width="518"/>
  <unicode hex="0E46"/>
  <outline>
    <contour>
      <point x="350" y="351"/>
      <point x="264" y="22"/>
      <point x="233" y="-114" type="curve" smooth="yes"/>
      <point x="215" y="-191" type="line"/>
      <point x="214" y="-197"/>
      <point x="213" y="-203"/>
      <point x="213" y="-209" type="curve" smooth="yes"/>
      <point x="213" y="-226"/>
      <point x="221" y="-240"/>
      <point x="245" y="-240" type="curve" smooth="yes"/>
      <point x="306" y="-240"/>
      <point x="320" y="-215"/>
      <point x="333" y="-190" type="curve"/>
      <point x="348" y="-57"/>
      <point x="453" y="291"/>
      <point x="488" y="469" type="curve" smooth="yes"/>
      <point x="489" y="474"/>
      <point x="489" y="479"/>
      <point x="489" y="484" type="curve" smooth="yes"/>
      <point x="489" y="519"/>
      <point x="477" y="563"/>
      <point x="434" y="563" type="curve" smooth="yes"/>
      <point x="312" y="563"/>
      <point x="214" y="434"/>
      <point x="180" y="379" type="curve"/>
      <point x="168" y="399"/>
      <point x="162" y="425"/>
      <point x="162" y="451" type="curve" smooth="yes"/>
      <point x="162" y="486"/>
      <point x="173" y="520"/>
      <point x="196" y="540" type="curve"/>
      <point x="197" y="541"/>
      <point x="171" y="564"/>
      <point x="170" y="564" type="curve" smooth="yes"/>
      <point x="96" y="564"/>
      <point x="54" y="507"/>
      <point x="54" y="441" type="curve" smooth="yes"/>
      <point x="54" y="390"/>
      <point x="97" y="272"/>
      <point x="156" y="272" type="curve" smooth="yes"/>
      <point x="219" y="272"/>
      <point x="312" y="449"/>
      <point x="376" y="466" type="curve"/>
    </contour>
  </outline>
</glyph>
<glyph name="nikhahit-thai" format="1">
  <advance width="0"/>
  <unicode hex="0E4D"/>
  <outline>
    <contour>
      <point x="-14" y="632"/>
      <point x="56" y="683"/>
      <point x="56" y="747" type="curve" smooth="yes"/>
      <point x="56" y="811"/>
      <point x="7" y="853"/>
      <point x="-42" y="853" type="curve" smooth="yes"/>
      <point x="-126" y="853"/>
      <point x="-189" y="805"/>
      <point x="-189" y="732" type="curve" smooth="yes"/>
      <point x="-189" y="677"/>
      <point x="-152" y="632"/>
      <point x="-91" y="632" type="curve" smooth="yes"/>
    </contour>
    <contour>
      <point x="-96" y="687"/>
      <point x="-120" y="701"/>
      <point x="-120" y="727" type="curve" smooth="yes"/>
      <point x="-120" y="772"/>
      <point x="-95" y="792"/>
      <point x="-55" y="792" type="curve" smooth="yes"/>
      <point x="-34" y="792"/>
      <point x="-17" y="776"/>
      <point x="-17" y="752" type="curve" smooth="yes"/>
      <point x="-17" y="708"/>
      <point x="-48" y="687"/>
      <point x="-78" y="687" type="curve" smooth="yes"/>
    </contour>
    <contour>
      <point x="-22" y="582" type="move" name="top"/>
    </contour>
    <contour>
      <point x="26" y="550" type="move" name="_top"/>
    </contour>
  </outline>
</glyph>
<glyph name="Uhookabove" format="1">
  <advance width="662"/>
  <unicode hex="1EE6"/>
  <outline>
    <contour>
      <point x="12" y="263" type="line" smooth="yes"/>
      <point x="6" y="240"/>
      <point x="3" y="218"/>
      <point x="3" y="197" type="curve" smooth="yes"/>
      <point x="3" y="69"/>
      <point x="105" y="-21"/>
      <point x="246" y="-21" type="curve" smooth="yes"/>
      <point x="459" y="-21"/>
      <point x="546" y="117"/>
      <point x="576" y="283" type="curve" smooth="yes"/>
      <point x="594" y="383"/>
      <point x="639" y="577"/>
      <point x="656" y="643" type="curve"/>
      <point x="651" y="654"/>
      <point x="621" y="664"/>
      <point x="573" y="664" type="curve" smooth="yes"/>
      <point x="571" y="664"/>
      <point x="553" y="661"/>
      <point x="551" y="660" type="curve"/>
      <point x="521" y="642"/>
      <point x="525" y="618"/>
      <point x="507" y="564" type="curve" smooth="yes"/>
      <point x="500" y="541"/>
      <point x="466" y="394"/>
      <point x="454" y="331" type="curve" smooth="yes"/>
      <point x="424" y="178"/>
      <point x="394" y="81"/>
      <point x="260" y="80" type="curve" smooth="yes"/>
      <point x="210" y="80"/>
      <point x="134" y="108"/>
      <point x="134" y="194" type="curve" smooth="yes"/>
      <point x="134" y="199"/>
      <point x="135" y="203"/>
      <point x="135" y="208" type="curve"/>
      <point x="146" y="325"/>
      <point x="236" y="559"/>
      <point x="236" y="624" type="curve" smooth="yes"/>
      <point x="236" y="632"/>
      <point x="234" y="638"/>
      <point x="231" y="640" type="curve"/>
      <point x="229" y="657"/>
      <point x="196" y="664"/>
      <point x="164" y="664" type="curve" smooth="yes"/>
      <point x="118" y="664"/>
      <point x="109" y="647"/>
      <point x="95" y="591" type="curve" smooth="yes"/>
    </contour>
    <contour>
      <point x="438" y="746"/>
      <point x="435" y="771"/>
      <point x="471" y="785" type="curve" smooth="yes"/>
      <point x="512" y="801"/>
      <point x="557" y="827"/>
      <point x="557" y="883" type="curve" smooth="yes"/>
      <point x="557" y="936"/>
      <point x="499" y="958"/>
      <point x="448" y="958" type="curve" smooth="yes"/>
      <point x="403" y="958"/>
      <point x="339" y="950"/>
      <point x="339" y="907" type="curve" smooth="yes"/>
      <point x="339" y="892"/>
      <point x="351" y="876"/>
      <point x="364" y="876" type="curve" smooth="yes"/>
      <point x="392" y="876"/>
      <point x="391" y="894"/>
      <point x="434" y="894" type="curve" smooth="yes"/>
      <point x="464" y="894"/>
      <point x="471" y="880"/>
      <point x="471" y="872" type="curve" smooth="yes"/>
      <point x="471" y="820"/>
      <point x="380" y="839"/>
      <point x="367" y="789" type="curve" smooth="yes"/>
      <point x="352" y="734"/>
      <point x="351" y="725"/>
      <point x="351" y="723" type="curve" smooth="yes"/>
      <point x="351" y="711"/>
      <point x="364" y="704"/>
      <point x="385" y="704" type="curve" smooth="yes"/>
      <point x="411" y="704"/>
      <point x="424" y="718"/>
      <point x="431" y="731" type="curve"/>
    </contour>
  </outline>
</glyph>
<glyph name="Uhornhookabove" format="1">
  <advance width="762"/>
  <unicode hex="1EEC"/>
  <outline>
    <contour>
      <point x="814" y="623"/>
      <point x="811" y="658"/>
      <point x="772" y="658" type="curve" smooth="yes"/>
      <point x="748" y="658" type="line" smooth="yes"/>
      <point x="721" y="658"/>
      <point x="707" y="627"/>
      <point x="707" y="608" type="curve" smooth="yes"/>
      <point x="707" y="596"/>
      <point x="714" y="582"/>
      <point x="714" y="566" type="curve" smooth="yes"/>
      <point x="714" y="488"/>
      <point x="665" y="482"/>
      <point x="616" y="478" type="curve"/>
      <point x="632" y="548"/>
      <point x="647" y="609"/>
      <point x="656" y="643" type="curve"/>
      <point x="651" y="654"/>
      <point x="621" y="664"/>
      <point x="573" y="664" type="curve" smooth="yes"/>
      <point x="571" y="664"/>
      <point x="553" y="661"/>
      <point x="551" y="660" type="curve"/>
      <point x="521" y="642"/>
      <point x="525" y="618"/>
      <point x="507" y="564" type="curve" smooth="yes"/>
      <point x="500" y="541"/>
      <point x="466" y="394"/>
      <point x="454" y="331" type="curve" smooth="yes"/>
      <point x="424" y="178"/>
      <point x="394" y="81"/>
      <point x="260" y="80" type="curve" smooth="yes"/>
      <point x="210" y="80"/>
      <point x="134" y="108"/>
      <point x="134" y="194" type="curve" smooth="yes"/>
      <point x="134" y="199"/>
      <point x="135" y="203"/>
      <point x="135" y="208" type="curve"/>
      <point x="146" y="325"/>
      <point x="236" y="559"/>
      <point x="236" y="624" type="curve" smooth="yes"/>
      <point x="236" y="632"/>
      <point x="234" y="638"/>
      <point x="231" y="640" type="curve"/>
      <point x="229" y="657"/>
      <point x="196" y="664"/>
      <point x="164" y="664" type="curve" smooth="yes"/>
      <point x="118" y="664"/>
      <point x="109" y="647"/>
      <point x="95" y="591" type="curve" smooth="yes"/>
      <point x="12" y="263" type="line" smooth="yes"/>
      <point x="6" y="240"/>
      <point x="3" y="218"/>
      <point x="3" y="197" type="curve" smooth="yes"/>
      <point x="3" y="69"/>
      <point x="105" y="-21"/>
      <point x="246" y="-21" type="curve" smooth="yes"/>
      <point x="459" y="-21"/>
      <point x="546" y="117"/>
      <point x="576" y="283" type="curve" smooth="yes"/>
      <point x="583" y="323"/>
      <point x="594" y="377"/>
      <point x="606" y="433" type="curve"/>
      <point x="615" y="430"/>
      <point x="627" y="429"/>
      <point x="642" y="429" type="curve" smooth="yes"/>
      <point x="747" y="429"/>
      <point x="814" y="511"/>
      <point x="814" y="603" type="curve" smooth="yes"/>
    </contour>
    <contour>
      <point x="452" y="747"/>
      <point x="449" y="772"/>
      <point x="485" y="786" type="curve" smooth="yes"/>
      <point x="526" y="802"/>
      <point x="571" y="828"/>
      <point x="571" y="884" type="curve" smooth="yes"/>
      <point x="571" y="937"/>
      <point x="513" y="959"/>
      <point x="462" y="959" type="curve" smooth="yes"/>
      <point x="417" y="959"/>
      <point x="353" y="951"/>
      <point x="353" y="908" type="curve" smooth="yes"/>
      <point x="353" y="893"/>
      <point x="365" y="877"/>
      <point x="378" y="877" type="curve" smooth="yes"/>
      <point x="406" y="877"/>
      <point x="405" y="895"/>
      <point x="448" y="895" type="curve" smooth="yes"/>
      <point x="478" y="895"/>
      <point x="485" y="881"/>
      <point x="485" y="873" type="curve" smooth="yes"/>
      <point x="485" y="821"/>
      <point x="394" y="840"/>
      <point x="381" y="790" type="curve" smooth="yes"/>
      <point x="366" y="735"/>
      <point x="365" y="726"/>
      <point x="365" y="724" type="curve" smooth="yes"/>
      <point x="365" y="712"/>
      <point x="378" y="705"/>
      <point x="399" y="705" type="curve" smooth="yes"/>
      <point x="425" y="705"/>
      <point x="438" y="719"/>
      <point x="445" y="732" type="curve"/>
    </contour>
  </outline>
</glyph>
<glyph name="Uhorntilde" format="1">
  <advance width="762"/>
  <unicode hex="1EEE"/>
  <outline>
    <contour>
      <point x="814" y="623"/>
      <point x="811" y="658"/>
      <point x="772" y="658" type="curve" smooth="yes"/>
      <point x="748" y="658" type="line" smooth="yes"/>
      <point x="721" y="658"/>
      <point x="707" y="627"/>
      <point x="707" y="608" type="curve" smooth="yes"/>
      <point x="707" y="596"/>
      <point x="714" y="582"/>
      <point x="714" y="566" type="curve" smooth="yes"/>
      <point x="714" y="488"/>
      <point x="665" y="482"/>
      <point x="616" y="478" type="curve"/>
      <point x="632" y="548"/>
      <point x="647" y="609"/>
      <point x="656" y="643" type="curve"/>
      <point x="651" y="654"/>
      <point x="621" y="664"/>
      <point x="573" y="664" type="curve" smooth="yes"/>
      <point x="571" y="664"/>
      <point x="553" y="661"/>
      <point x="551" y="660" type="curve"/>
      <point x="521" y="642"/>
      <point x="525" y="618"/>
      <point x="507" y="564" type="curve" smooth="yes"/>
      <point x="500" y="541"/>
      <point x="466" y="394"/>
      <point x="454" y="331" type="curve" smooth="yes"/>
      <point x="424" y="178"/>
      <point x="394" y="81"/>
      <point x="260" y="80" type="curve" smooth="yes"/>
      <point x="210" y="80"/>
      <point x="134" y="108"/>
      <point x="134" y="194" type="curve" smooth="yes"/>
      <point x="134" y="199"/>
      <point x="135" y="203"/>
      <point x="135" y="208" type="curve"/>
      <point x="146" y="325"/>
      <point x="236" y="559"/>
      <point x="236" y="624" type="curve" smooth="yes"/>
      <point x="236" y="632"/>
      <point x="234" y="638"/>
      <point x="231" y="640" type="curve"/>
      <point x="229" y="657"/>
      <point x="196" y="664"/>
      <point x="164" y="664" type="curve" smooth="yes"/>
      <point x="118" y="664"/>
      <point x="109" y="647"/>
      <point x="95" y="591" type="curve" smooth="yes"/>
      <point x="12" y="263" type="line" smooth="yes"/>
      <point x="6" y="240"/>
      <point x="3" y="218"/>
      <point x="3" y="197" type="curve" smooth="yes"/>
      <point x="3" y="69"/>
      <point x="105" y="-21"/>
      <point x="246" y="-21" type="curve" smooth="yes"/>
      <point x="459" y="-21"/>
      <point x="546" y="117"/>
      <point x="576" y="283" type="curve" smooth="yes"/>
      <point x="583" y="323"/>
      <point x="594" y="377"/>
      <point x="606" y="433" type="curve"/>
      <point x="615" y="430"/>
      <point x="627" y="429"/>
      <point x="642" y="429" type="curve" smooth="yes"/>
      <point x="747" y="429"/>
      <point x="814" y="511"/>
      <point x="814" y="603" type="curve" smooth="yes"/>
    </contour>
    <contour>
      <point x="373" y="766"/>
      <point x="391" y="760"/>
      <point x="417" y="739" type="curve"/>
      <point x="448" y="719"/>
      <point x="470" y="707"/>
      <point x="503" y="707" type="curve" smooth="yes"/>
      <point x="531" y="707"/>
      <point x="606" y="753"/>
      <point x="606" y="814" type="curve" smooth="yes"/>
      <point x="606" y="821"/>
      <point x="605" y="823"/>
      <point x="604" y="823" type="curve" smooth="yes"/>
      <point x="601" y="823"/>
      <point x="598" y="833"/>
      <point x="591" y="833" type="curve" smooth="yes"/>
      <point x="589" y="833"/>
      <point x="585" y="832"/>
      <point x="582" y="829" type="curve"/>
      <point x="564" y="813"/>
      <point x="548" y="792"/>
      <point x="525" y="792" type="curve" smooth="yes"/>
      <point x="503" y="792"/>
      <point x="485" y="799"/>
      <point x="459" y="819" type="curve" smooth="yes"/>
      <point x="429" y="842"/>
      <point x="398" y="854"/>
      <point x="369" y="854" type="curve" smooth="yes"/>
      <point x="321" y="854"/>
      <point x="244" y="803"/>
      <point x="244" y="761" type="curve" smooth="yes"/>
      <point x="244" y="723"/>
      <point x="252" y="715"/>
      <point x="266" y="707" type="curve"/>
      <point x="298" y="742"/>
      <point x="329" y="766"/>
      <point x="353" y="766" type="curve" smooth="yes"/>
    </contour>
  </outline>
</glyph>
<glyph name="E.ss02" format="1">
  <advance width="542"/>
  <outline>
    <contour>
      <point x="60" y="137" type="line" smooth="yes"/>
      <point x="54" y="111"/>
      <point x="53" y="96"/>
      <point x="53" y="84" type="curve" smooth="yes"/>
      <point x="53" y="2"/>
      <point x="124" y="-20"/>
      <point x="181" y="-20" type="curve" smooth="yes"/>
      <point x="264" y="-20"/>
      <point x="361" y="-3"/>
      <point x="419" y="10" type="curve"/>
      <point x="447" y="19"/>
      <point x="477" y="44"/>
      <point x="477" y="69" type="curve" smooth="yes"/>
      <point x="477" y="91"/>
      <point x="458" y="117"/>
      <point x="438" y="126" type="curve"/>
      <point x="372" y="113"/>
      <point x="309" y="97"/>
      <point x="245" y="97" type="curve" smooth="yes"/>
      <point x="225" y="97"/>
      <point x="195" y="100"/>
      <point x="195" y="126" type="curve" smooth="yes"/>
      <point x="195" y="130"/>
      <point x="197" y="151"/>
      <point x="198" y="155" type="curve" smooth="yes"/>
      <point x="236" y="304" type="line"/>
      <point x="316" y="318"/>
      <point x="373" y="322"/>
      <point x="438" y="330" type="curve"/>
      <point x="466" y="339"/>
      <point x="496" y="363"/>
      <point x="496" y="388" type="curve" smooth="yes"/>
      <point x="496" y="411"/>
      <point x="478" y="426"/>
      <point x="456" y="435" type="curve"/>
      <point x="386" y="429"/>
      <point x="360" y="425"/>
      <point x="259" y="409" type="curve"/>
      <point x="274" y="469"/>
      <point x="284" y="515"/>
      <point x="292" y="555" type="curve"/>
      <point x="388" y="563"/>
      <point x="496" y="570"/>
      <point x="537" y="573" type="curve"/>
      <point x="566" y="580"/>
      <point x="599" y="603"/>
      <point x="599" y="628" type="curve" smooth="yes"/>
      <point x="599" y="651"/>
      <point x="581" y="666"/>
      <point x="562" y="676" type="curve"/>
      <point x="491" y="675"/>
      <point x="265" y="660"/>
      <point x="159" y="646" type="curve"/>
      <point x="132" y="633"/>
      <point x="123" y="617"/>
      <point x="122" y="600" type="curve"/>
      <point x="123" y="580"/>
      <point x="150" y="558"/>
      <point x="153" y="540" type="curve"/>
    </contour>
  </outline>
</glyph>
<glyph name="maiHanaKat-thai.narrow" format="1">
  <advance width="0"/>
  <outline>
    <contour>
      <point x="-367" y="661"/>
      <point x="-320" y="610"/>
      <point x="-284" y="610" type="curve" smooth="yes"/>
      <point x="-216" y="610"/>
      <point x="25" y="731"/>
      <point x="116" y="731" type="curve" smooth="yes"/>
      <point x="125" y="731"/>
      <point x="136" y="745"/>
      <point x="136" y="755" type="curve" smooth="yes"/>
      <point x="136" y="791"/>
      <point x="107" y="795"/>
      <point x="78" y="795" type="curve" smooth="yes"/>
      <point x="22" y="795"/>
      <point x="-199" y="735"/>
      <point x="-254" y="694" type="curve"/>
      <point x="-260" y="706" type="line"/>
      <point x="-250" y="726"/>
      <point x="-218" y="765"/>
      <point x="-218" y="780" type="curve" smooth="yes"/>
      <point x="-218" y="813"/>
      <point x="-260" y="822"/>
      <point x="-303" y="822" type="curve" smooth="yes"/>
      <point x="-338" y="822"/>
      <point x="-367" y="734"/>
      <point x="-367" y="686" type="curve" smooth="yes"/>
    </contour>
    <contour>
      <point x="-87" y="602" type="move" name="top"/>
    </contour>
    <contour>
      <point x="-94" y="550" type="move" name="_top"/>
    </contour>
  </outline>
</glyph>
<glyph name="x.ss01" format="1">
  <advance width="523"/>
  <outline>
    <contour>
      <point x="335" y="9"/>
      <point x="355" y="-6"/>
      <point x="370" y="-6" type="curve" smooth="yes"/>
      <point x="386" y="-6"/>
      <point x="395" y="-4"/>
      <point x="404" y="3" type="curve" smooth="yes"/>
      <point x="415" y="11"/>
      <point x="419" y="20"/>
      <point x="419" y="28" type="curve" smooth="yes"/>
      <point x="419" y="44"/>
      <point x="414" y="61"/>
      <point x="400" y="83" type="curve" smooth="yes"/>
      <point x="309" y="232"/>
      <point x="235" y="392"/>
      <point x="204" y="460" type="curve" smooth="yes"/>
      <point x="193" y="485"/>
      <point x="182" y="488"/>
      <point x="170" y="488" type="curve" smooth="yes"/>
      <point x="140" y="488"/>
      <point x="97" y="468"/>
      <point x="97" y="437" type="curve" smooth="yes"/>
      <point x="97" y="430"/>
      <point x="99" y="421"/>
      <point x="103" y="411" type="curve"/>
      <point x="141" y="328"/>
      <point x="246" y="119"/>
      <point x="313" y="35" type="curve" smooth="yes"/>
    </contour>
    <contour>
      <point x="517" y="407"/>
      <point x="531" y="397"/>
      <point x="531" y="430" type="curve" smooth="yes"/>
      <point x="531" y="449"/>
      <point x="517" y="484"/>
      <point x="468" y="484" type="curve" smooth="yes"/>
      <point x="401" y="484"/>
      <point x="97" y="116"/>
      <point x="31" y="57" type="curve" smooth="yes"/>
      <point x="11" y="39" type="line"/>
      <point x="10" y="34"/>
      <point x="10" y="29"/>
      <point x="10" y="25" type="curve" smooth="yes"/>
      <point x="10" y="6"/>
      <point x="52" y="-20"/>
      <point x="69" y="-20" type="curve" smooth="yes"/>
      <point x="82" y="-20"/>
      <point x="96" y="-18"/>
      <point x="108" y="-8" type="curve" smooth="yes"/>
      <point x="164" y="39"/>
      <point x="464" y="360"/>
      <point x="478" y="373" type="curve" smooth="yes"/>
    </contour>
  </outline>
</glyph>
